<?xml version="1.0" encoding="utf-8"?>
<!-- Generator: Adobe Illustrator 23.1.0, SVG Export Plug-In . SVG Version: 6.00 Build 0)  -->
<svg version="1.1" id="Layer_1" xmlns="http://www.w3.org/2000/svg" xmlns:xlink="http://www.w3.org/1999/xlink" x="0px" y="0px"
	 viewBox="0 0 212.8 127.3" style="enable-background:new 0 0 212.8 127.3;" xml:space="preserve">
<style type="text/css">
	.st0{fill:#002677;}
</style>
<path class="st0" d="M5.8,116.8h12.3v3.3H2V96.3h15.3v3.3H5.8v6.9h9.9v3.3H5.8V116.8z M199.2,109.8h10.2v-3.3h-10.2v-6.9H211v-3.3
	h-15.6v23.8h16.4v-3.3h-12.6L199.2,109.8L199.2,109.8z M50.7,121.1l1.2-0.5l-2.8,3.8l-0.1,0c-0.4,0.1-1,0.2-1.5,0.2
	c-2.7,0-4.6-0.7-6.8-1.8c-1.8-1-3.6-1.7-4.8-2.2l-0.4-0.2l0,0c-5.8-0.5-11.6-4.9-11.6-12.3c0-7.7,6.6-12.3,13-12.3
	c6.4,0,13,4.6,13,12.3c0,5.3-3.3,9.9-8.2,11.3l-0.3,0.1l0.3,0.1c0.5,0.2,1,0.4,1.6,0.7C46.2,121.7,48.5,122,50.7,121.1z M45.9,108.2
	c0-5.6-4.6-9-9.1-9c-4.4,0-9.1,3.2-9.1,9c0,5.9,4.7,9,9.1,9C41.2,117.3,45.9,113.9,45.9,108.2z M67.4,117.1c-3.9,0-6.1-2.1-6.1-5.7
	V96.3h-3.8v15.4c0,5.3,4,8.8,9.9,8.8c6,0,9.9-3.5,9.9-8.8V96.3h-3.7v15.1C73.6,115,71.3,117.1,67.4,117.1z M90.9,96.3h-3.8v23.8h3.8
	V96.3z M107.5,120.1h3.8V99.6h7.9v-3.3H99.6v3.3h7.9V120.1z M138,56.7c-9.7-15.7-23.8-1.1-13.6,13.3C130.5,66.7,135.2,61.7,138,56.7
	z M114.8,73.7c2.8-0.7,4.3-1.1,6.8-2.3c-10.7-16.6,6.6-32.6,17.1-15.9c0.7-1.4,1.4-2.8,1.9-4.3C124.1,27.8,101.6,48.7,114.8,73.7z
	 M103.2,45.8c0,0,0-0.1,0-0.1c0-0.1-0.1-0.2-0.2-0.2c0,0-0.1,0-0.1,0l0,0c-3.6,2.4-7.8,10.3-9.7,26.3c1.2,0.5,2.4,0.9,3.7,1.3
	C97,56.1,100.8,49.6,103.2,45.8L103.2,45.8z M142.2,45.5c0.5-2.4,0.7-4.4,0.7-7c0-19.9-16.1-36-36-36c-19.9,0-36,16.1-36,36
	c0,7.5,2.3,14.4,6.2,20.2c0,0,0,0,0,0c1.9-5.4,4.7-13.1,5.7-15.5c0.7-1.8,2.2-2.8,4-3.4c0.5,1.2,2.5,3.7,5.7,3.8
	c-0.9,1.3-1.2,2-2.1,3.9c-1.3,2.9-2.4,5.1-3.9,7.4c0,0-0.8,1.2-2.1,1.3c-1.9-1.1-1.6-4.2-2.1-5.4c-0.2-0.4-0.6-0.5-0.8-0.2
	c-0.4,0.4,0,2.4,0,3.9c-0.1,1.2-0.9,3.4-2.4,6.7c4,4.9,8.1,7.5,10.5,8.9l0,0c0.6-4,1.7-9.5,3-13.4l0-0.1c0,0,0,0,0,0
	c0-0.1,0-0.1-0.1-0.1c0,0-0.1,0-0.1,0.1l0,0c-1,2-4.3,7.9-5,8.7c-0.2,0.2-0.8,0-1-0.8c-0.3-1-0.3-1.2-0.9-1.3c-2-0.1-2.5-1.7-2.5-2
	c-0.2-0.9,0.3-1.4,0.8-1.5c0.3-0.1,0.6-0.1,1-0.2c2.3-0.7,3.2-1.7,4.4-4c1.2-2.2,2.5-5.7,4.4-8.9c1.9-3.5,4-6.4,6.1-7.3
	c4-1.7,6,0.2,6.5,0.7c-4.2-0.1-6.5,2.8-8.5,6l0,0c0,0,0,0.1,0,0.1c0,0.1,0.1,0.2,0.2,0.2c0.1,0,0.1,0,0.2-0.1l0,0
	c1.5-1.6,5-4.1,10.8-4C97.1,56,104.1,72.5,105,74.5c1.8,0.1,3.8,0.1,6-0.2C97,44.1,126.1,27,141.1,49.9c0.4-1,0.8-2.8,0.8-2.8
	c-11.7-19-29.9-7.8-30.9-6.9c0,0,0-1.7,1.8-2.6c5.1-2.6,9.7-3.4,14.5-2.7C132.7,35.7,138.2,39.2,142.2,45.5z M111.5,23.8
	c0-0.3-0.2-1.1-0.3-2c-0.1-0.4,0.1-0.8,0.3-0.9c0.8,0.9,1.6,1.6,2,2.1c0.4,0.4,0.3,0.8-0.2,1.1c-0.4,0.3-0.8,0.4-1,0.4
	C111.8,24.5,111.6,24.3,111.5,23.8z M109.6,30.1c0,0.1,0,0.1-0.1,0.1c-0.9,0-4.9-0.4-5.6-3.5c-0.1-0.5-0.3-1-0.3-1
	c0,0-0.2,0-0.2,0.3c-0.1,0.3,0,0.5-0.3,0.6c-0.3,0.2-1.5,0-2.5-1.6c-0.9-1.5-0.1-1.9,0-2c0.4-0.1,1,0,1.3,0.8
	c0.2,0.7,1.3,1.1,1.1-0.8c0-0.7-0.2-1.6,0.7-2.3c0.9-0.7,1.9-1,1.5-1.3c0,0,0,0,0,0c-0.1,0-1-0.5-2.3-0.5c-3.5,0-5.5,3.1-5.6,3.2
	c-0.4,0.5-0.8,0.6-1.1,0.5c0,0,0,0,0-0.1c3.9-5.9,8.2-8.5,11-8.5c1,0,1.5,0.5,1.7,0.7c0,0,0,0.1,0,0.1c-0.3,0-1.7,0.1-3.5,0.9
	c-2.1,0.9-2.8,1.7-3,1.8c0,0,0,0,0,0.1c0.3,0.4,0.8,0.4,0.8,0.4c0.3,0,0.6-0.1,1-0.3c4.1-1.9,4.4-1.9,4.9-1.1
	c0.8,1.2,1.1,1.7,0.2,2.4c-1.1,0.8-3,1.2-1.1,2.8c0.9,0.8,2.2,1.1,2,3C109.9,26.5,107.1,27.3,109.6,30.1z M94.9,24.4
	c0.2,0.5,0.6,1.4,1.7,1.4c0.9,0,1.3-0.4,2-0.3c-0.8,2.1-3.8,2.2-4.7,0.1C94.2,25.3,94.6,24.7,94.9,24.4z M93.6,23
	c-1.8,2.9-4.6-0.3-2.3-1.2C91.9,22.4,92.3,22.8,93.6,23z M103.9,37.6c-0.2-0.1-5.3-1.9-10.3,4.3c-3-0.3-4.1-2.1-4.4-3
	c0.8-0.3,6.4-2.1,7.8-3.8c1.8-2.1,2.6-6.8,2.6-6.8c0,0,0.1-0.5,0.6-0.5c0.1,0,0.9,0.1,1.7,1C103.4,30.9,102,32.7,103.9,37.6z
	 M115.5,26c0.3,0.6,0.4,1.2-0.1,1.9c0.2,0.3,0.2,0.6,0.2,0.9c0,0.6-0.3,1-0.5,1.2c0,0,0,0.1,0.1,0.2c0.5,1.1,0.2,2.4-0.8,3.2
	c-1.1,0.8-2.7,0.9-3.2,0.9c-1.1,0-2.7-0.2-2.7-0.2c0,0,0,0,0,0c-0.1,0.6-0.2,1.8,0.1,3.2c-0.9-1.6-0.9-3.5-1-4.5
	c1.1,0.1,2.4,0.3,3.4,0.3c1.1,0,1.9-0.1,2.6-0.6c0.6-0.5,0.8-1,0.4-1.7c-0.3-0.6-0.4-1.1,0.1-1.6c0.3-0.3,0.1-0.7-0.2-0.9
	c-0.3-0.3-0.3-0.4,0-0.7c0.5-0.5,0.5-0.7,0.1-1.3c-0.1-0.2-0.2-0.4-0.2-0.6c-0.1-0.3,0.1-0.5,0.4-0.6c0.7-0.2,1.2-0.8,1.2-1.5
	c0-0.2-0.2-0.5-0.4-0.7c-0.7-0.9-1.5-1.8-2.2-2.7c-0.4-0.4-0.4-0.9-0.1-1.4c0.1-0.3,0.1-0.7,0.1-1c-0.2-1.3-1-2.3-1.6-3.4
	c-0.1-0.1-0.2-0.3-0.1-0.4c0.5-1.2-1.1-3.7-3.3-3.8c-0.3,0-0.7,0-1-0.2C106,9.4,104.8,9,101.8,9c-1.5,0-2.9,0.2-4.3,0.7
	c-2.3,0.9-4.3,3.3-3.5,5.4c0.1-0.3,1.3-4.4,5-3.9c0,0-1.1,0.8-1.1,2.3c0,0.9,1.2,1.1,1.5,0.3c1-2.4,2.4-1.6,2.4-1.5
	c0,0-1.4,0.5-0.9,2.5c0.1,0.3-0.1,0.6-0.5,0.6c-0.8,0-0.6-0.5-2.3,1.3c-0.4,0.3-2.4,1.3-3.5-0.5c-0.1,0.1-0.5,0.5-0.7,1
	c-1,2.4,1.8,2.3,1.8,2.3c-0.7,1-1,1.6-1.1,1.7c-3.3-0.1-3.1-3.1-2.7-3.8c-0.7,0.2-1.4,1.3-1,2.8c-4.2,2.1-1.7,6,1.3,6.1
	c0-0.1-0.2,3.6,2.6,3.6c1.1,0,0.9-0.6,2.5-0.4c-0.5,0.5-1.4,1.4-2.9,1.4c-2,0-3.6-1.6-3.6-3.6c-0.6-0.2-1.5-0.6-2.4-1.6h0
	c-0.4-0.4-2.6-3.6,1.3-6.1c-0.5-4.9,2.8-6.2,3.1-6.4c2.3-7,12.4-6,15-4.2c5.6,0.7,5,4.9,5,5c0.6,1.1,1.3,2.2,1.6,3.6
	c0.2,1.1-0.2,1.7-0.2,1.9c2.4,2.8,2.9,3.2,2.9,4.1C116.8,24.6,116.3,25.5,115.5,26z M133.8,95.9l10.3,24.2h-3.9l-2.6-6.2l0-0.1h-9.2
	l-2.6,6.2h-3.8l10.3-24.2H133.8z M136.2,110.8c-2.8-6.7-2.6-6.3-3.2-8.1c-0.4,1.2-0.3,0.9-3.3,8.1H136.2z M166.8,112.8
	c0,4.8-4.1,7.3-8.1,7.3h-7.9V96.3h6.6c3.4,0,7,2.2,7,6.3c0,2.5-1.5,3.8-1.9,4.1C165.2,107.8,166.8,110.2,166.8,112.8z M154.6,105.5
	h2.5c1.7,0,3.6-0.8,3.6-3c0-2.3-1.9-3.1-3.6-3.1h-2.5V105.5z M163,112.8c0-2.8-2.5-4.1-4.9-4.1h-3.5v8.2h3.6
	C160.6,116.9,163,115.6,163,112.8z M178.7,96.3h-3.8v23.8h14.6v-3.3h-10.8L178.7,96.3L178.7,96.3z"/>
</svg>
